<svg xmlns="http://www.w3.org/2000/svg" xmlns:xlink="http://www.w3.org/1999/xlink" width="700" zoomAndPan="magnify" viewBox="0 0 525.75 395.999985" height="528" preserveAspectRatio="xMidYMid meet" version="1.0"><defs><g/></defs><g fill="#000000" fill-opacity="1"><g transform="translate(159.032039, 293.73021)"><g><path d="M 7.90625 0.046875 L 7.75 -0.09375 L 7.75 -1 L 7.65625 -1.015625 C 6.832031 -0.148438 5.910156 0.28125 4.890625 0.28125 C 3.722656 0.28125 2.734375 -0.203125 1.921875 -1.171875 C 1.109375 -2.140625 0.703125 -3.363281 0.703125 -4.84375 C 0.703125 -6.28125 1.148438 -7.484375 2.046875 -8.453125 C 2.953125 -9.421875 4.03125 -9.90625 5.28125 -9.90625 C 6.207031 -9.90625 7.019531 -9.695312 7.71875 -9.28125 L 7.71875 -12.640625 C 7.71875 -13.046875 7.601562 -13.40625 7.375 -13.71875 C 7.15625 -14.03125 6.515625 -14.21875 5.453125 -14.28125 L 5.453125 -14.90625 L 9.40625 -15.125 L 9.5625 -14.984375 L 9.5625 -1.984375 C 9.5625 -1.691406 9.632812 -1.445312 9.78125 -1.25 C 9.9375 -1.0625 10.082031 -0.953125 10.21875 -0.921875 C 10.363281 -0.890625 10.710938 -0.859375 11.265625 -0.828125 L 11.265625 -0.171875 Z M 7.71875 -7.5 C 7.71875 -7.6875 7.519531 -8.007812 7.125 -8.46875 C 6.738281 -8.925781 6.191406 -9.15625 5.484375 -9.15625 C 4.679688 -9.15625 4.023438 -8.753906 3.515625 -7.953125 C 3.003906 -7.160156 2.75 -6.082031 2.75 -4.71875 C 2.75 -3.550781 3 -2.601562 3.5 -1.875 C 4.007812 -1.144531 4.695312 -0.78125 5.5625 -0.78125 C 6.375 -0.78125 7.09375 -1.140625 7.71875 -1.859375 Z M 7.71875 -7.5 "/></g></g></g><g fill="#000000" fill-opacity="1"><g transform="translate(173.03193, 293.73021)"><g><path d="M 9.265625 -2.25 C 8.359375 -0.570312 7.035156 0.265625 5.296875 0.265625 C 3.859375 0.265625 2.734375 -0.207031 1.921875 -1.15625 C 1.109375 -2.101562 0.703125 -3.351562 0.703125 -4.90625 C 0.703125 -6.269531 1.113281 -7.441406 1.9375 -8.421875 C 2.757812 -9.410156 3.8125 -9.90625 5.09375 -9.90625 C 6.363281 -9.90625 7.335938 -9.535156 8.015625 -8.796875 C 8.691406 -8.054688 9.03125 -7.046875 9.03125 -5.765625 L 9.03125 -5.125 L 2.640625 -5.125 C 2.640625 -3.75 2.914062 -2.6875 3.46875 -1.9375 C 4.03125 -1.195312 4.828125 -0.828125 5.859375 -0.828125 C 6.429688 -0.828125 6.921875 -0.953125 7.328125 -1.203125 C 7.734375 -1.453125 8.148438 -1.941406 8.578125 -2.671875 Z M 7.09375 -5.9375 C 7.09375 -8.082031 6.421875 -9.15625 5.078125 -9.15625 C 4.398438 -9.15625 3.832031 -8.867188 3.375 -8.296875 C 2.925781 -7.722656 2.679688 -6.9375 2.640625 -5.9375 Z M 7.09375 -5.9375 "/></g></g></g><g fill="#000000" fill-opacity="1"><g transform="translate(185.206363, 293.73021)"><g><path d="M 1.734375 -0.59375 L 1.546875 0.015625 L 0.828125 0.015625 L 0.71875 -3.328125 L 1.375 -3.328125 C 1.570312 -2.554688 1.945312 -1.890625 2.5 -1.328125 C 3.0625 -0.773438 3.707031 -0.5 4.4375 -0.5 C 5.738281 -0.5 6.390625 -1.046875 6.390625 -2.140625 C 6.390625 -2.585938 6.226562 -2.957031 5.90625 -3.25 C 5.59375 -3.539062 4.929688 -3.835938 3.921875 -4.140625 C 1.941406 -4.722656 0.953125 -5.703125 0.953125 -7.078125 C 0.953125 -7.890625 1.253906 -8.5625 1.859375 -9.09375 C 2.460938 -9.632812 3.242188 -9.90625 4.203125 -9.90625 C 4.992188 -9.90625 5.695312 -9.738281 6.3125 -9.40625 L 6.546875 -9.921875 L 7.234375 -9.921875 L 7.40625 -6.8125 L 6.71875 -6.8125 C 6.363281 -8.375 5.519531 -9.15625 4.1875 -9.15625 C 3.664062 -9.15625 3.25 -9.023438 2.9375 -8.765625 C 2.625 -8.503906 2.46875 -8.175781 2.46875 -7.78125 C 2.46875 -7.28125 2.617188 -6.910156 2.921875 -6.671875 C 3.222656 -6.429688 3.882812 -6.140625 4.90625 -5.796875 C 6.050781 -5.429688 6.835938 -5.007812 7.265625 -4.53125 C 7.691406 -4.0625 7.90625 -3.476562 7.90625 -2.78125 C 7.90625 -1.894531 7.566406 -1.164062 6.890625 -0.59375 C 6.210938 -0.0195312 5.347656 0.265625 4.296875 0.265625 C 3.347656 0.265625 2.492188 -0.0195312 1.734375 -0.59375 Z M 1.734375 -0.59375 "/></g></g></g><g fill="#000000" fill-opacity="1"><g transform="translate(196.365567, 293.73021)"><g><path d="M 2.875 -12.15625 C 2.550781 -12.15625 2.265625 -12.285156 2.015625 -12.546875 C 1.773438 -12.804688 1.65625 -13.109375 1.65625 -13.453125 C 1.65625 -13.816406 1.773438 -14.132812 2.015625 -14.40625 C 2.265625 -14.675781 2.550781 -14.8125 2.875 -14.8125 C 3.238281 -14.8125 3.539062 -14.679688 3.78125 -14.421875 C 4.03125 -14.171875 4.15625 -13.875 4.15625 -13.53125 C 4.15625 -13.164062 4.03125 -12.84375 3.78125 -12.5625 C 3.539062 -12.289062 3.238281 -12.15625 2.875 -12.15625 Z M 0.71875 0 L 0.71875 -0.640625 L 1.1875 -0.6875 C 1.820312 -0.738281 2.140625 -1.054688 2.140625 -1.640625 L 2.140625 -7.578125 C 2.140625 -8.367188 1.566406 -8.804688 0.421875 -8.890625 L 0.421875 -9.546875 L 3.8125 -9.734375 L 3.96875 -9.59375 L 3.96875 -1.765625 C 3.96875 -1.390625 4.082031 -1.125 4.3125 -0.96875 C 4.539062 -0.8125 4.894531 -0.703125 5.375 -0.640625 L 5.375 0 Z M 0.71875 0 "/></g></g></g><g fill="#000000" fill-opacity="1"><g transform="translate(204.742656, 293.73021)"><g><path d="M 3.1875 -0.375 L 3.1875 -0.5 C 2.050781 -0.832031 1.484375 -1.398438 1.484375 -2.203125 C 1.484375 -2.929688 1.96875 -3.492188 2.9375 -3.890625 L 2.9375 -4.0625 C 1.632812 -4.664062 0.984375 -5.570312 0.984375 -6.78125 C 0.984375 -7.707031 1.320312 -8.457031 2 -9.03125 C 2.6875 -9.613281 3.550781 -9.90625 4.59375 -9.90625 C 5.09375 -9.90625 5.679688 -9.796875 6.359375 -9.578125 L 9.71875 -9.578125 L 9.71875 -8.65625 L 7.46875 -8.65625 L 7.46875 -8.609375 C 7.945312 -8.035156 8.1875 -7.382812 8.1875 -6.65625 C 8.1875 -5.820312 7.832031 -5.109375 7.125 -4.515625 C 6.425781 -3.929688 5.628906 -3.640625 4.734375 -3.640625 L 3.5625 -3.640625 C 3.09375 -3.441406 2.859375 -3.160156 2.859375 -2.796875 C 2.859375 -2.617188 2.894531 -2.46875 2.96875 -2.34375 C 3.050781 -2.226562 3.195312 -2.128906 3.40625 -2.046875 C 3.613281 -1.960938 4.039062 -1.898438 4.6875 -1.859375 L 6.78125 -1.765625 C 7.882812 -1.710938 8.664062 -1.398438 9.125 -0.828125 C 9.582031 -0.253906 9.8125 0.351562 9.8125 1 C 9.8125 2.007812 9.367188 2.816406 8.484375 3.421875 C 7.597656 4.035156 6.351562 4.34375 4.75 4.34375 C 1.863281 4.34375 0.421875 3.5 0.421875 1.8125 C 0.421875 1.207031 0.65625 0.703125 1.125 0.296875 C 1.601562 -0.0976562 2.289062 -0.320312 3.1875 -0.375 Z M 4.5625 -9.203125 C 3.4375 -9.203125 2.875 -8.390625 2.875 -6.765625 C 2.875 -6.046875 3.03125 -5.457031 3.34375 -5 C 3.664062 -4.539062 4.078125 -4.3125 4.578125 -4.3125 C 5.128906 -4.3125 5.554688 -4.53125 5.859375 -4.96875 C 6.160156 -5.414062 6.3125 -5.992188 6.3125 -6.703125 C 6.3125 -7.460938 6.160156 -8.066406 5.859375 -8.515625 C 5.554688 -8.972656 5.125 -9.203125 4.5625 -9.203125 Z M 4.078125 -0.140625 C 3.753906 -0.140625 3.347656 0.0078125 2.859375 0.3125 C 2.367188 0.613281 2.125 1.101562 2.125 1.78125 C 2.125 2.320312 2.378906 2.757812 2.890625 3.09375 C 3.398438 3.4375 4.132812 3.609375 5.09375 3.609375 C 7.164062 3.609375 8.203125 2.859375 8.203125 1.359375 C 8.203125 0.972656 8.09375 0.65625 7.875 0.40625 C 7.65625 0.164062 7.265625 0.015625 6.703125 -0.046875 C 6.148438 -0.109375 5.273438 -0.140625 4.078125 -0.140625 Z M 4.078125 -0.140625 "/></g></g></g><g fill="#000000" fill-opacity="1"><g transform="translate(217.434461, 293.73021)"><g><path d="M 6.625 0 L 6.625 -0.640625 L 7.125 -0.6875 C 7.769531 -0.726562 8.09375 -1.046875 8.09375 -1.640625 L 8.09375 -6.609375 C 8.09375 -7.253906 7.9375 -7.769531 7.625 -8.15625 C 7.320312 -8.539062 6.925781 -8.734375 6.4375 -8.734375 C 5.320312 -8.734375 4.488281 -8.25 3.9375 -7.28125 L 3.9375 -1.734375 C 3.9375 -1.085938 4.429688 -0.722656 5.421875 -0.640625 L 5.421875 0 L 0.703125 0 L 0.703125 -0.640625 L 1.171875 -0.6875 C 1.804688 -0.738281 2.125 -1.054688 2.125 -1.640625 L 2.125 -7.578125 C 2.125 -8.421875 1.613281 -8.859375 0.59375 -8.890625 L 0.59375 -9.546875 L 3.796875 -9.734375 L 3.9375 -9.59375 L 3.9375 -8.265625 L 3.984375 -8.265625 C 4.691406 -8.992188 5.273438 -9.445312 5.734375 -9.625 C 6.191406 -9.8125 6.6875 -9.90625 7.21875 -9.90625 C 9.03125 -9.90625 9.9375 -8.84375 9.9375 -6.71875 L 9.9375 -1.71875 C 9.9375 -1.070312 10.40625 -0.710938 11.34375 -0.640625 L 11.34375 0 Z M 6.625 0 "/></g></g></g><g fill="#000000" fill-opacity="1"><g transform="translate(231.766251, 293.73021)"><g/></g></g><g fill="#000000" fill-opacity="1"><g transform="translate(239.108585, 293.73021)"><g><path d="M 14.203125 -8.078125 C 13.453125 -8.015625 12.910156 -7.875 12.578125 -7.65625 C 12.242188 -7.445312 11.957031 -7.085938 11.71875 -6.578125 C 10.84375 -4.679688 10.21875 -3.507812 9.84375 -3.0625 C 10.613281 -2.1875 11.242188 -1.585938 11.734375 -1.265625 C 12.222656 -0.953125 13 -0.765625 14.0625 -0.703125 L 14.0625 0 L 10.015625 0 L 8.578125 -1.65625 C 7.347656 -0.320312 6.066406 0.34375 4.734375 0.34375 C 3.585938 0.34375 2.632812 0.015625 1.875 -0.640625 C 1.125 -1.304688 0.75 -2.210938 0.75 -3.359375 C 0.75 -4.222656 0.976562 -4.976562 1.4375 -5.625 C 1.894531 -6.28125 2.671875 -6.953125 3.765625 -7.640625 C 2.972656 -8.679688 2.492188 -9.40625 2.328125 -9.8125 C 2.160156 -10.226562 2.078125 -10.675781 2.078125 -11.15625 C 2.078125 -12.039062 2.40625 -12.765625 3.0625 -13.328125 C 3.726562 -13.898438 4.546875 -14.1875 5.515625 -14.1875 C 6.460938 -14.1875 7.207031 -13.921875 7.75 -13.390625 C 8.289062 -12.859375 8.5625 -12.21875 8.5625 -11.46875 C 8.5625 -10.0625 7.648438 -8.878906 5.828125 -7.921875 C 6.453125 -7.078125 7.304688 -6.019531 8.390625 -4.75 C 8.671875 -4.414062 8.972656 -4.050781 9.296875 -3.65625 C 10.222656 -5.101562 10.6875 -6.296875 10.6875 -7.234375 C 10.6875 -7.578125 10.117188 -7.859375 8.984375 -8.078125 L 8.984375 -8.78125 L 14.203125 -8.78125 Z M 5.40625 -8.5 C 6.675781 -9.195312 7.3125 -10.117188 7.3125 -11.265625 C 7.3125 -12.640625 6.738281 -13.328125 5.59375 -13.328125 C 5.09375 -13.328125 4.695312 -13.132812 4.40625 -12.75 C 4.113281 -12.363281 3.96875 -11.957031 3.96875 -11.53125 C 3.96875 -10.757812 4.445312 -9.75 5.40625 -8.5 Z M 8.0625 -2.21875 C 7.695312 -2.675781 7.019531 -3.515625 6.03125 -4.734375 C 5.144531 -5.816406 4.53125 -6.597656 4.1875 -7.078125 C 3.226562 -6.410156 2.75 -5.421875 2.75 -4.109375 C 2.75 -3.203125 3 -2.457031 3.5 -1.875 C 4.007812 -1.300781 4.679688 -1.015625 5.515625 -1.015625 C 6.585938 -1.015625 7.4375 -1.414062 8.0625 -2.21875 Z M 8.0625 -2.21875 "/></g></g></g><g fill="#000000" fill-opacity="1"><g transform="translate(255.822257, 293.73021)"><g/></g></g><g fill="#000000" fill-opacity="1"><g transform="translate(263.164591, 293.73021)"><g><path d="M 2.875 -12.15625 C 2.550781 -12.15625 2.265625 -12.285156 2.015625 -12.546875 C 1.773438 -12.804688 1.65625 -13.109375 1.65625 -13.453125 C 1.65625 -13.816406 1.773438 -14.132812 2.015625 -14.40625 C 2.265625 -14.675781 2.550781 -14.8125 2.875 -14.8125 C 3.238281 -14.8125 3.539062 -14.679688 3.78125 -14.421875 C 4.03125 -14.171875 4.15625 -13.875 4.15625 -13.53125 C 4.15625 -13.164062 4.03125 -12.84375 3.78125 -12.5625 C 3.539062 -12.289062 3.238281 -12.15625 2.875 -12.15625 Z M 0.71875 0 L 0.71875 -0.640625 L 1.1875 -0.6875 C 1.820312 -0.738281 2.140625 -1.054688 2.140625 -1.640625 L 2.140625 -7.578125 C 2.140625 -8.367188 1.566406 -8.804688 0.421875 -8.890625 L 0.421875 -9.546875 L 3.8125 -9.734375 L 3.96875 -9.59375 L 3.96875 -1.765625 C 3.96875 -1.390625 4.082031 -1.125 4.3125 -0.96875 C 4.539062 -0.8125 4.894531 -0.703125 5.375 -0.640625 L 5.375 0 Z M 0.71875 0 "/></g></g></g><g fill="#000000" fill-opacity="1"><g transform="translate(271.541676, 293.73021)"><g><path d="M 6.625 0 L 6.625 -0.640625 L 7.125 -0.6875 C 7.769531 -0.726562 8.09375 -1.046875 8.09375 -1.640625 L 8.09375 -6.609375 C 8.09375 -7.253906 7.9375 -7.769531 7.625 -8.15625 C 7.320312 -8.539062 6.925781 -8.734375 6.4375 -8.734375 C 5.320312 -8.734375 4.488281 -8.25 3.9375 -7.28125 L 3.9375 -1.734375 C 3.9375 -1.085938 4.429688 -0.722656 5.421875 -0.640625 L 5.421875 0 L 0.703125 0 L 0.703125 -0.640625 L 1.171875 -0.6875 C 1.804688 -0.738281 2.125 -1.054688 2.125 -1.640625 L 2.125 -7.578125 C 2.125 -8.421875 1.613281 -8.859375 0.59375 -8.890625 L 0.59375 -9.546875 L 3.796875 -9.734375 L 3.9375 -9.59375 L 3.9375 -8.265625 L 3.984375 -8.265625 C 4.691406 -8.992188 5.273438 -9.445312 5.734375 -9.625 C 6.191406 -9.8125 6.6875 -9.90625 7.21875 -9.90625 C 9.03125 -9.90625 9.9375 -8.84375 9.9375 -6.71875 L 9.9375 -1.71875 C 9.9375 -1.070312 10.40625 -0.710938 11.34375 -0.640625 L 11.34375 0 Z M 6.625 0 "/></g></g></g><g fill="#000000" fill-opacity="1"><g transform="translate(285.873466, 293.73021)"><g><path d="M 6.65625 -0.421875 C 5.71875 -0.00390625 4.851562 0.203125 4.0625 0.203125 C 2.59375 0.203125 1.859375 -0.570312 1.859375 -2.125 L 1.859375 -8.65625 L 0.125 -8.65625 L 0.125 -9.578125 L 1.90625 -9.578125 L 1.90625 -12.578125 L 3.6875 -12.578125 L 3.6875 -9.578125 L 6.4375 -9.578125 L 6.4375 -8.65625 L 3.703125 -8.65625 L 3.703125 -3.28125 C 3.703125 -2.382812 3.800781 -1.773438 4 -1.453125 C 4.207031 -1.140625 4.628906 -0.984375 5.265625 -0.984375 C 5.816406 -0.984375 6.28125 -1.035156 6.65625 -1.140625 Z M 6.65625 -0.421875 "/></g></g></g><g fill="#000000" fill-opacity="1"><g transform="translate(295.295066, 293.73021)"><g><path d="M 9.265625 -2.25 C 8.359375 -0.570312 7.035156 0.265625 5.296875 0.265625 C 3.859375 0.265625 2.734375 -0.207031 1.921875 -1.15625 C 1.109375 -2.101562 0.703125 -3.351562 0.703125 -4.90625 C 0.703125 -6.269531 1.113281 -7.441406 1.9375 -8.421875 C 2.757812 -9.410156 3.8125 -9.90625 5.09375 -9.90625 C 6.363281 -9.90625 7.335938 -9.535156 8.015625 -8.796875 C 8.691406 -8.054688 9.03125 -7.046875 9.03125 -5.765625 L 9.03125 -5.125 L 2.640625 -5.125 C 2.640625 -3.75 2.914062 -2.6875 3.46875 -1.9375 C 4.03125 -1.195312 4.828125 -0.828125 5.859375 -0.828125 C 6.429688 -0.828125 6.921875 -0.953125 7.328125 -1.203125 C 7.734375 -1.453125 8.148438 -1.941406 8.578125 -2.671875 Z M 7.09375 -5.9375 C 7.09375 -8.082031 6.421875 -9.15625 5.078125 -9.15625 C 4.398438 -9.15625 3.832031 -8.867188 3.375 -8.296875 C 2.925781 -7.722656 2.679688 -6.9375 2.640625 -5.9375 Z M 7.09375 -5.9375 "/></g></g></g><g fill="#000000" fill-opacity="1"><g transform="translate(307.469495, 293.73021)"><g><path d="M 6.0625 -8.765625 C 5.207031 -8.710938 4.5 -8.238281 3.9375 -7.34375 L 3.9375 -1.734375 C 3.9375 -1.390625 4.046875 -1.132812 4.265625 -0.96875 C 4.492188 -0.800781 5 -0.691406 5.78125 -0.640625 L 5.78125 0 L 0.703125 0 L 0.703125 -0.640625 L 1.171875 -0.6875 C 1.804688 -0.738281 2.125 -1.054688 2.125 -1.640625 L 2.125 -7.578125 C 2.125 -8.421875 1.613281 -8.859375 0.59375 -8.890625 L 0.59375 -9.546875 L 3.796875 -9.734375 L 3.9375 -9.59375 L 3.9375 -8.265625 L 3.984375 -8.265625 C 4.828125 -9.328125 5.726562 -9.859375 6.6875 -9.859375 C 7.09375 -9.859375 7.425781 -9.726562 7.6875 -9.46875 C 7.945312 -9.207031 8.078125 -8.84375 8.078125 -8.375 C 8.078125 -8.007812 7.988281 -7.707031 7.8125 -7.46875 C 7.632812 -7.238281 7.390625 -7.125 7.078125 -7.125 C 6.742188 -7.125 6.472656 -7.207031 6.265625 -7.375 C 6.054688 -7.550781 5.953125 -7.765625 5.953125 -8.015625 C 5.953125 -8.210938 5.988281 -8.460938 6.0625 -8.765625 Z M 6.0625 -8.765625 "/></g></g></g><g fill="#000000" fill-opacity="1"><g transform="translate(318.189415, 293.73021)"><g><path d="M 2.875 -12.15625 C 2.550781 -12.15625 2.265625 -12.285156 2.015625 -12.546875 C 1.773438 -12.804688 1.65625 -13.109375 1.65625 -13.453125 C 1.65625 -13.816406 1.773438 -14.132812 2.015625 -14.40625 C 2.265625 -14.675781 2.550781 -14.8125 2.875 -14.8125 C 3.238281 -14.8125 3.539062 -14.679688 3.78125 -14.421875 C 4.03125 -14.171875 4.15625 -13.875 4.15625 -13.53125 C 4.15625 -13.164062 4.03125 -12.84375 3.78125 -12.5625 C 3.539062 -12.289062 3.238281 -12.15625 2.875 -12.15625 Z M 0.71875 0 L 0.71875 -0.640625 L 1.1875 -0.6875 C 1.820312 -0.738281 2.140625 -1.054688 2.140625 -1.640625 L 2.140625 -7.578125 C 2.140625 -8.367188 1.566406 -8.804688 0.421875 -8.890625 L 0.421875 -9.546875 L 3.8125 -9.734375 L 3.96875 -9.59375 L 3.96875 -1.765625 C 3.96875 -1.390625 4.082031 -1.125 4.3125 -0.96875 C 4.539062 -0.8125 4.894531 -0.703125 5.375 -0.640625 L 5.375 0 Z M 0.71875 0 "/></g></g></g><g fill="#000000" fill-opacity="1"><g transform="translate(326.566501, 293.73021)"><g><path d="M 5.296875 0.296875 C 4.015625 0.296875 2.925781 -0.175781 2.03125 -1.125 C 1.132812 -2.070312 0.6875 -3.289062 0.6875 -4.78125 C 0.6875 -6.289062 1.125 -7.519531 2 -8.46875 C 2.875 -9.425781 4.019531 -9.90625 5.4375 -9.90625 C 6.820312 -9.90625 7.941406 -9.441406 8.796875 -8.515625 C 9.648438 -7.585938 10.078125 -6.390625 10.078125 -4.921875 C 10.078125 -3.398438 9.640625 -2.148438 8.765625 -1.171875 C 7.898438 -0.191406 6.742188 0.296875 5.296875 0.296875 Z M 5.421875 -9.15625 C 4.546875 -9.15625 3.875 -8.769531 3.40625 -8 C 2.9375 -7.238281 2.703125 -6.21875 2.703125 -4.9375 C 2.703125 -3.582031 2.9375 -2.492188 3.40625 -1.671875 C 3.875 -0.847656 4.546875 -0.4375 5.421875 -0.4375 C 6.253906 -0.4375 6.898438 -0.84375 7.359375 -1.65625 C 7.828125 -2.46875 8.0625 -3.550781 8.0625 -4.90625 C 8.0625 -6.21875 7.832031 -7.253906 7.375 -8.015625 C 6.925781 -8.773438 6.273438 -9.15625 5.421875 -9.15625 Z M 5.421875 -9.15625 "/></g></g></g><g fill="#000000" fill-opacity="1"><g transform="translate(339.863539, 293.73021)"><g><path d="M 6.0625 -8.765625 C 5.207031 -8.710938 4.5 -8.238281 3.9375 -7.34375 L 3.9375 -1.734375 C 3.9375 -1.390625 4.046875 -1.132812 4.265625 -0.96875 C 4.492188 -0.800781 5 -0.691406 5.78125 -0.640625 L 5.78125 0 L 0.703125 0 L 0.703125 -0.640625 L 1.171875 -0.6875 C 1.804688 -0.738281 2.125 -1.054688 2.125 -1.640625 L 2.125 -7.578125 C 2.125 -8.421875 1.613281 -8.859375 0.59375 -8.890625 L 0.59375 -9.546875 L 3.796875 -9.734375 L 3.9375 -9.59375 L 3.9375 -8.265625 L 3.984375 -8.265625 C 4.828125 -9.328125 5.726562 -9.859375 6.6875 -9.859375 C 7.09375 -9.859375 7.425781 -9.726562 7.6875 -9.46875 C 7.945312 -9.207031 8.078125 -8.84375 8.078125 -8.375 C 8.078125 -8.007812 7.988281 -7.707031 7.8125 -7.46875 C 7.632812 -7.238281 7.390625 -7.125 7.078125 -7.125 C 6.742188 -7.125 6.472656 -7.207031 6.265625 -7.375 C 6.054688 -7.550781 5.953125 -7.765625 5.953125 -8.015625 C 5.953125 -8.210938 5.988281 -8.460938 6.0625 -8.765625 Z M 6.0625 -8.765625 "/></g></g></g><g fill="#000000" fill-opacity="1"><g transform="translate(350.583459, 293.73021)"><g><path d="M 1.734375 -0.59375 L 1.546875 0.015625 L 0.828125 0.015625 L 0.71875 -3.328125 L 1.375 -3.328125 C 1.570312 -2.554688 1.945312 -1.890625 2.5 -1.328125 C 3.0625 -0.773438 3.707031 -0.5 4.4375 -0.5 C 5.738281 -0.5 6.390625 -1.046875 6.390625 -2.140625 C 6.390625 -2.585938 6.226562 -2.957031 5.90625 -3.25 C 5.59375 -3.539062 4.929688 -3.835938 3.921875 -4.140625 C 1.941406 -4.722656 0.953125 -5.703125 0.953125 -7.078125 C 0.953125 -7.890625 1.253906 -8.5625 1.859375 -9.09375 C 2.460938 -9.632812 3.242188 -9.90625 4.203125 -9.90625 C 4.992188 -9.90625 5.695312 -9.738281 6.3125 -9.40625 L 6.546875 -9.921875 L 7.234375 -9.921875 L 7.40625 -6.8125 L 6.71875 -6.8125 C 6.363281 -8.375 5.519531 -9.15625 4.1875 -9.15625 C 3.664062 -9.15625 3.25 -9.023438 2.9375 -8.765625 C 2.625 -8.503906 2.46875 -8.175781 2.46875 -7.78125 C 2.46875 -7.28125 2.617188 -6.910156 2.921875 -6.671875 C 3.222656 -6.429688 3.882812 -6.140625 4.90625 -5.796875 C 6.050781 -5.429688 6.835938 -5.007812 7.265625 -4.53125 C 7.691406 -4.0625 7.90625 -3.476562 7.90625 -2.78125 C 7.90625 -1.894531 7.566406 -1.164062 6.890625 -0.59375 C 6.210938 -0.0195312 5.347656 0.265625 4.296875 0.265625 C 3.347656 0.265625 2.492188 -0.0195312 1.734375 -0.59375 Z M 1.734375 -0.59375 "/></g></g></g><g fill="#000000" fill-opacity="1"><g transform="translate(361.731239, 293.73021)"><g/></g></g><g fill="#000000" fill-opacity="1"><g transform="translate(131.446508, 220.063098)"><g><path d="M 1.015625 0.5 C 0.00390625 0.5 -0.75 0.132812 -1.25 -0.59375 C -1.757812 -1.320312 -2.015625 -2.1875 -2.015625 -3.1875 C -1.898438 -4.875 -1.5625 -5.882812 -1 -6.21875 C -0.445312 -6.550781 0.21875 -6.71875 1 -6.71875 C 1.789062 -6.71875 2.296875 -6.71875 2.515625 -6.71875 C 5.878906 -6.71875 8.34375 -7.582031 9.90625 -9.3125 C 11.476562 -11.050781 12.738281 -13.015625 13.6875 -15.203125 C 14.644531 -17.390625 15.289062 -18.875 15.625 -19.65625 L 45.015625 -89.1875 C 45.691406 -90.875 46.03125 -92.21875 46.03125 -93.21875 C 46.03125 -95.238281 45.242188 -96.695312 43.671875 -97.59375 C 42.109375 -98.488281 39.925781 -99.21875 37.125 -99.78125 C 35.21875 -100.113281 34.039062 -100.445312 33.59375 -100.78125 C 33.144531 -101.113281 32.921875 -102.066406 32.921875 -103.640625 C 32.921875 -104.984375 33.285156 -105.878906 34.015625 -106.328125 C 34.742188 -106.773438 35.890625 -107 37.453125 -107 C 43.054688 -107 47.507812 -106.578125 50.8125 -105.734375 C 54.113281 -104.898438 56.992188 -103.222656 59.453125 -100.703125 C 61.921875 -98.179688 64.21875 -94.34375 66.34375 -89.1875 L 94.5625 -19.65625 C 96.25 -15.394531 97.875 -12.203125 99.4375 -10.078125 C 101.007812 -7.953125 103.363281 -6.832031 106.5 -6.71875 L 107.5 -6.71875 C 108.625 -6.71875 109.410156 -6.519531 109.859375 -6.125 C 110.304688 -5.738281 110.582031 -4.757812 110.6875 -3.1875 C 110.6875 -2.1875 110.4375 -1.320312 109.9375 -0.59375 C 109.4375 0.132812 108.679688 0.5 107.671875 0.5 C 100.503906 0.164062 94.34375 0 89.1875 0 C 82.46875 0 75.523438 0.164062 68.359375 0.5 C 67.359375 0.5 66.601562 0.132812 66.09375 -0.59375 C 65.59375 -1.320312 65.34375 -2.1875 65.34375 -3.1875 C 65.457031 -4.757812 65.738281 -5.738281 66.1875 -6.125 C 66.632812 -6.519531 67.414062 -6.71875 68.53125 -6.71875 C 72.34375 -6.71875 75.03125 -7.082031 76.59375 -7.8125 C 78.164062 -8.539062 78.953125 -9.859375 78.953125 -11.765625 C 78.953125 -13.210938 78.28125 -15.84375 76.9375 -19.65625 L 71.21875 -33.59375 L 29.734375 -33.59375 C 26.929688 -26.65625 25.332031 -22.625 24.9375 -21.5 C 24.550781 -20.382812 24.359375 -19.769531 24.359375 -19.65625 C 23.015625 -15.394531 22.34375 -12.648438 22.34375 -11.421875 C 22.34375 -9.515625 23.179688 -8.253906 24.859375 -7.640625 C 26.535156 -7.023438 29.726562 -6.71875 34.4375 -6.71875 L 35.4375 -6.71875 C 36.5625 -6.71875 37.347656 -6.519531 37.796875 -6.125 C 38.242188 -5.738281 38.523438 -4.757812 38.640625 -3.1875 C 38.640625 -2.1875 38.382812 -1.320312 37.875 -0.59375 C 37.375 0.132812 36.617188 0.5 35.609375 0.5 C 28.441406 0.164062 22.335938 0 17.296875 0 C 13.710938 0 8.285156 0.164062 1.015625 0.5 Z M 32.921875 -40.8125 L 68.203125 -40.8125 L 51.234375 -83.984375 L 50.734375 -83.984375 Z M 32.921875 -40.8125 "/></g></g></g><path stroke-linecap="butt" transform="matrix(-0.00198022, -0.750698, 0.749997, -0.00197837, 257.332498, 263.86296)" fill="none" stroke-linejoin="miter" d="M -0.000493924 1.999383 L 267.760843 1.998016 " stroke="#000000" stroke-width="4" stroke-opacity="1" stroke-miterlimit="4"/><g fill="#000000" fill-opacity="1"><g transform="translate(279.720807, 219.492854)"><g><path d="M 10.25 0.5 C 9.238281 0.5 8.476562 0.132812 7.96875 -0.59375 C 7.46875 -1.320312 7.21875 -2.1875 7.21875 -3.1875 C 7.332031 -4.875 7.671875 -5.882812 8.234375 -6.21875 C 8.796875 -6.550781 9.859375 -6.71875 11.421875 -6.71875 C 14.671875 -6.71875 17.078125 -7.304688 18.640625 -8.484375 C 20.210938 -9.660156 21.191406 -11.113281 21.578125 -12.84375 C 21.972656 -14.582031 22.226562 -16.851562 22.34375 -19.65625 L 22.34375 -86.1875 C 22.226562 -89.09375 21.972656 -91.382812 21.578125 -93.0625 C 21.191406 -94.75 20.210938 -96.207031 18.640625 -97.4375 C 17.078125 -98.664062 14.671875 -99.28125 11.421875 -99.28125 L 10.421875 -99.28125 C 9.296875 -99.28125 8.507812 -99.476562 8.0625 -99.875 C 7.613281 -100.269531 7.332031 -101.25 7.21875 -102.8125 C 7.21875 -103.820312 7.46875 -104.691406 7.96875 -105.421875 C 8.476562 -106.148438 9.238281 -106.515625 10.25 -106.515625 C 17.53125 -106.179688 24.191406 -106.015625 30.234375 -106.015625 L 59.140625 -106.015625 C 67.765625 -105.898438 74.957031 -104.523438 80.71875 -101.890625 C 86.488281 -99.253906 90.71875 -95.894531 93.40625 -91.8125 C 96.09375 -87.726562 97.4375 -83.332031 97.4375 -78.625 C 97.4375 -72.46875 95 -66.8125 90.125 -61.65625 C 85.257812 -56.5 78.625 -52.800781 70.21875 -50.5625 L 73.078125 -46.03125 C 77.785156 -38.414062 82.039062 -31.890625 85.84375 -26.453125 C 89.65625 -21.023438 93.800781 -15.957031 98.28125 -11.25 C 101.414062 -8.675781 104.773438 -7.164062 108.359375 -6.71875 C 108.585938 -6.71875 109.09375 -6.6875 109.875 -6.625 C 110.65625 -6.570312 111.296875 -6.265625 111.796875 -5.703125 C 112.304688 -5.148438 112.5625 -4.3125 112.5625 -3.1875 C 112.5625 -2.1875 112.304688 -1.320312 111.796875 -0.59375 C 111.296875 0.132812 110.539062 0.5 109.53125 0.5 L 105.171875 0.34375 C 100.242188 0.113281 96.660156 0 94.421875 0 C 89.941406 -0.894531 86.101562 -2.488281 82.90625 -4.78125 C 79.71875 -7.082031 76.554688 -10.359375 73.421875 -14.609375 C 70.171875 -18.867188 65.632812 -25.816406 59.8125 -35.453125 L 56.78125 -40.3125 C 55.101562 -42.894531 53.476562 -44.660156 51.90625 -45.609375 C 50.34375 -46.566406 47.65625 -47.046875 43.84375 -47.046875 L 38.96875 -47.046875 L 38.96875 -19.65625 C 39.082031 -16.851562 39.332031 -14.582031 39.71875 -12.84375 C 40.113281 -11.113281 41.097656 -9.660156 42.671875 -8.484375 C 44.242188 -7.304688 46.648438 -6.71875 49.890625 -6.71875 L 50.90625 -6.71875 C 51.914062 -6.71875 52.671875 -6.519531 53.171875 -6.125 C 53.671875 -5.738281 53.976562 -4.757812 54.09375 -3.1875 C 54.09375 -2.1875 53.835938 -1.320312 53.328125 -0.59375 C 52.828125 0.132812 52.078125 0.5 51.078125 0.5 C 43.898438 0.164062 36.898438 0 30.078125 0 C 24.140625 0 17.53125 0.164062 10.25 0.5 Z M 53.765625 -53.59375 C 70.453125 -53.59375 78.796875 -61.429688 78.796875 -77.109375 C 78.796875 -83.492188 76.609375 -88.867188 72.234375 -93.234375 C 67.867188 -97.609375 60.703125 -99.796875 50.734375 -99.796875 C 47.484375 -99.796875 45.019531 -99.398438 43.34375 -98.609375 C 41.664062 -97.828125 40.515625 -96.484375 39.890625 -94.578125 C 39.273438 -92.679688 38.96875 -89.769531 38.96875 -85.84375 L 38.96875 -53.59375 Z M 53.765625 -53.59375 "/></g></g></g></svg>